<svg width="67" height="61" viewBox="0 0 67 61" fill="none" xmlns="http://www.w3.org/2000/svg">
<path fill-rule="evenodd" clip-rule="evenodd" d="M31.4404 0.251175C31.1733 0.401846 30.9812 1.23166 30.8469 2.81584C30.6319 5.34902 30.053 6.72182 28.7894 7.69432C28.1387 8.19506 28.1006 8.32324 28.3821 9.0686C28.8536 10.3177 29.0555 10.4444 30.7897 10.5793C33.4298 10.7847 37.0217 9.18354 37.0217 7.80101C37.0217 7.56013 36.4658 7.01391 35.7859 6.58689C33.939 5.42649 32.9479 3.76236 32.9919 1.89483C33.0331 0.152731 32.5403 -0.369253 31.4404 0.251175ZM33.4952 1.85609C33.09 2.79685 34.3828 4.68562 35.722 5.1089C36.1908 5.25708 36.2253 5.17762 36.0579 4.33406C35.849 3.28186 35.207 2.37608 34.2824 1.82887C33.7346 1.50478 33.6451 1.50777 33.4952 1.85609ZM29.2607 2.56148C28.4701 3.31409 27.9901 4.45501 28.2074 5.06544C28.4519 5.75233 29.1923 5.52768 29.8147 4.57792C30.2321 3.94075 30.2963 3.5707 30.1102 2.87157L29.8727 1.97902L29.2607 2.56148ZM34.9586 10.3947C33.2437 11.0296 31.882 11.3227 30.4533 11.3649C29.6865 11.3876 29.5893 11.4868 29.4081 12.4328C29.2982 13.0063 29.0016 13.8319 28.7488 14.2677C28.4962 14.7032 28.3568 15.1197 28.4395 15.1932C28.5219 15.2669 29.155 15.2002 29.8461 15.045C32.1626 14.525 35.5359 14.7704 38.9385 15.7059L40.4348 16.1174L40.9649 15.5028C41.6888 14.6632 41.6627 14.594 40.4045 14.022C39.0526 13.4073 38.5315 12.7759 37.9735 11.0776C37.4728 9.55285 37.3242 9.51937 34.9586 10.3947ZM47.8555 12.1368C46.498 12.601 44.7951 13.5288 44.9869 13.6997C45.0662 13.7707 46.3032 13.8604 47.7349 13.8991C50.382 13.9706 54.5108 14.9231 56.946 16.0237C58.2527 16.6144 59.904 18.2586 60.1362 19.2001C60.2371 19.6099 60.8654 20.5149 61.5326 21.2115C62.2823 21.9944 62.82 22.8417 62.9408 23.4306C63.3207 25.2827 64.5677 26.1977 66.2602 25.8664C67.0458 25.7127 67.0783 25.655 66.9314 24.6693C66.8467 24.0995 66.1086 22.4529 65.2913 21.0099C63.6058 18.0344 61.67 16.1007 58.4324 14.158C55.1772 12.2042 50.3532 11.2824 47.8555 12.1368ZM18.3782 12.3959C18.224 12.4383 17.6397 12.5413 17.0801 12.6245C16.5202 12.7077 15.3217 13.2007 14.4167 13.7204C13.5115 14.2399 11.9003 14.9748 10.8361 15.3531C9.77154 15.7314 8.38378 16.3586 7.75214 16.7466C6.18804 17.7076 3.9211 19.8862 2.66651 21.6341C0.731506 24.3304 -0.705034 28.949 0.365361 29.0335C1.33847 29.1102 2.25916 28.903 3.65953 28.2919C5.11597 27.6564 5.21158 27.5572 5.38568 26.501C5.86845 23.5668 6.64979 22.0056 7.98652 21.3025C8.56573 20.9982 9.37989 20.1321 10.0931 19.0622C10.7326 18.1027 11.4705 17.1534 11.7329 16.9525C11.9956 16.7516 13.3141 16.2791 14.6635 15.9028C17.1104 15.2201 19.0045 15.1399 21.0642 15.6319C21.8857 15.8281 23.7332 15.4488 24.551 14.9158C25.0873 14.5663 25.0879 14.5473 24.5743 14.0413C23.7071 13.1875 19.5279 12.0775 18.3782 12.3959ZM42.5355 15.1797C42.4326 15.2711 42.3485 15.7576 42.3485 16.2604C42.3485 17.6401 43.9759 18.7611 45.9791 18.7611C47.1888 18.7611 47.8518 19.8075 47.4636 21.1036C47.0722 22.4107 47.4047 23.148 48.4714 23.3382C49.3557 23.4959 51.1449 24.7494 51.6235 25.5465C51.8267 25.8849 51.7681 26.4063 51.4137 27.4078C50.9307 28.7741 50.933 28.8268 51.5413 30.3393C51.8822 31.1864 52.1609 32.1311 52.1609 32.4387C52.1609 33.4909 51.1115 35.4606 49.4415 37.5433C48.2104 39.079 47.6811 40.001 47.4243 41.0575C47.0699 42.517 45.7607 44.3663 43.7301 46.2763C42.9103 47.0474 42.4752 47.227 40.7695 47.4979C34.5361 48.4881 29.8612 46.5029 26.6506 41.5023C23.9365 37.2752 23.7273 36.7142 23.7155 33.6283C23.706 31.1541 23.7803 30.7363 24.4607 29.4423C25.8345 26.8299 29.2492 24.1368 32.0253 23.4766C35.1249 22.7395 39.9383 24.8024 41.5259 27.5482C42.7572 29.6774 42.7895 33.751 41.5921 35.8667C40.1637 38.3906 37.2474 40.7496 35.5561 40.7496C33.6544 40.7496 31.5663 39.2449 30.8181 37.3354C29.7802 34.6873 30.7749 30.5527 32.7057 29.4892C34.6553 28.4153 35.528 29.6781 35.2513 33.1728C35.1608 34.3167 35.1403 35.2525 35.2059 35.2525C35.2715 35.2525 35.5218 34.9137 35.7621 34.4994C36.9362 32.4757 36.7832 29.0874 35.4717 28.0687C34.489 27.3059 32.6692 27.3079 31.3947 28.0735C30.8755 28.3853 30.0684 29.1914 29.601 29.8648C28.8502 30.9465 28.7395 31.353 28.6509 33.3527C28.5957 34.5978 28.6952 36.1933 28.8724 36.8979C29.7059 40.2177 33.473 42.3508 37.0049 41.5032C38.7355 41.088 41.3796 38.6892 42.6499 36.3822C43.5708 34.7095 43.6095 34.5259 43.5963 31.8845C43.5804 28.6899 43.0199 27.0587 41.2551 25.0698C39.0403 22.5738 34.2061 21.227 30.3255 22.0244C27.3164 22.6425 24.2034 24.6615 22.99 26.7814C22.0326 28.454 21.5319 30.9235 21.6774 33.2535C21.9919 38.2872 26.1389 45.6039 30.7096 49.1898C32.007 50.2077 32.3275 50.7005 32.8175 52.4311C32.9829 53.015 33.2712 53.4893 33.4582 53.4848C33.6449 53.4803 34.1243 52.8336 34.5238 52.048C35.0758 50.9621 35.4546 50.5526 36.1036 50.3397L36.9573 50.0601L36.9194 51.7582C36.8847 53.3186 36.9486 53.519 37.705 54.2244C38.1577 54.6467 38.6195 54.9922 38.7311 54.9922C38.8424 54.9922 39.086 54.1769 39.2722 53.1807C39.4586 52.1845 39.7661 51.1013 39.9557 50.7737C40.2882 50.1997 40.3131 50.2222 40.6439 51.3936C40.8349 52.0685 40.9501 53.6687 40.9035 54.9927C40.8323 57.0229 40.9044 57.5049 41.3897 58.2456C41.7031 58.7238 42.0536 59.0871 42.1688 59.0529C42.7345 58.8847 42.5091 51.041 41.8977 49.62C41.4881 48.668 42.5383 49.69 43.1304 50.8197C44.2543 52.9646 44.6157 57.5819 43.8728 60.302C43.623 61.2153 44.3611 61.2363 45.2908 60.342C46.4341 59.2428 46.6937 57.3585 46.1462 54.1332C45.8882 52.613 45.496 50.7345 45.2746 49.9589C44.5507 47.4239 44.6597 47.0406 46.5818 45.3645C48.8451 43.391 50.1779 41.7719 51.5696 39.3044C53.3446 36.1583 53.9714 33.8885 53.9658 30.6299C53.9583 26.4236 53.1077 24.1103 50.384 20.8872C49.6882 20.0636 49.1465 19.3655 49.1802 19.3355C49.3893 19.1491 52.9033 20.1044 53.7735 20.5841C54.3516 20.903 55.4153 21.3602 56.1375 21.6008C57.5931 22.0856 60.4984 23.6903 61.0964 24.3399C61.5469 24.8294 62.1586 24.8869 62.3201 24.4551C62.5898 23.7342 62.0728 22.8427 60.6971 21.6563C59.8866 20.9572 58.8961 19.799 58.4961 19.0824C57.6508 17.5679 57.0744 17.2276 54.9644 16.9957C53.954 16.8845 52.9156 16.5442 51.952 16.008C49.9912 14.9171 48.283 14.7661 46.3377 15.512L44.8938 16.0655L43.9387 15.5392C42.8845 14.9588 42.8057 14.9385 42.5355 15.1797ZM26.6486 16.1592C25.6463 16.3553 24.3847 16.506 23.8451 16.494C23.3054 16.482 22.4164 16.5485 21.8691 16.6417C21.2083 16.7541 20.5147 16.6772 19.8024 16.4118C18.3204 15.8598 17.9571 15.9016 16.6226 16.7761C15.982 17.1961 14.9791 17.6062 14.3946 17.6874C12.8742 17.8983 12.0461 18.5119 11.1029 20.1264C10.1797 21.7063 10.09 21.7815 8.70591 22.1351C7.90858 22.3387 7.58029 22.6395 6.9537 23.7415C6.25141 24.9768 5.94105 26.2572 6.3442 26.2572C6.57746 26.2572 9.64651 24.1288 10.0718 23.672C10.2695 23.4596 11.0637 23.0988 11.8369 22.8699C12.6222 22.6375 13.8544 21.9696 14.6284 21.357C15.7596 20.4614 16.2135 20.2603 17.1031 20.2603C19.0504 20.2603 19.1559 20.4125 18.1129 21.7178C14.7366 25.9443 13.5656 30.6092 14.7537 35.1003C15.1555 36.6193 15.495 37.245 16.493 38.3064C17.1752 39.0318 17.9789 40.1032 18.2792 40.6872C18.848 41.7943 19.1917 41.9992 19.4547 41.3886C19.7878 40.6152 19.0412 39.1057 17.5259 37.4893L16.5093 36.4051L16.6055 32.393C16.7005 28.4218 16.7106 28.3658 17.6072 26.8723C18.1056 26.0428 18.7157 24.7497 18.963 23.9988C19.6897 21.7937 20.7118 20.3097 21.6272 20.1303C22.4161 19.9759 24.1254 18.4952 24.1254 17.9665C24.1254 17.7708 25.1392 17.7281 27.5598 17.822C30.5142 17.9365 31.3076 18.0632 33.237 18.7283C37.2023 20.0954 40.4595 22.0446 42.0757 24.0181C44.8658 27.4248 45.5759 29.3616 45.371 33.0037C45.2712 34.7795 45.0898 35.4347 44.2642 37.0016C43.1209 39.1712 41.0774 41.052 38.6938 42.1284C37.384 42.7199 36.9494 42.7931 35.3528 42.6896C30.8747 42.3995 28.3274 40.2534 27.308 35.9119C26.8676 34.0354 26.9461 32.8058 27.6486 30.5779C27.9918 29.4902 28.319 29.0879 29.6428 28.1269C32.0539 26.3763 32.614 26.1797 34.6342 26.3724C36.1608 26.5183 36.5407 26.6709 37.7804 27.6374C39.6764 29.1157 40.1062 30.0005 40.1028 32.4167C40.0986 35.4904 38.687 37.6902 36.4364 38.1307C34.032 38.6015 32.549 35.1586 33.7977 32.0042C34.7388 29.6272 34.0545 29.6229 33.0172 31.9994C30.9322 36.776 33.6328 40.4241 37.8387 38.5118C40.2713 37.4056 41.0914 35.7577 41.0765 32.0042C41.0675 29.7194 40.9722 29.1996 40.3395 27.9798C39.6344 26.6205 39.5472 26.5543 37.4061 25.7537C34.2513 24.574 32.3886 24.575 30.18 25.7574C28.4188 26.7004 27.1056 27.972 26.0517 29.7554C25.4501 30.7731 25.3876 31.1879 25.3926 34.1281C25.398 37.2282 25.4375 37.4506 26.2581 39.0005C27.9001 42.1032 29.0566 42.855 33.3766 43.6291C36.135 44.1234 38.451 44.0012 40.0389 43.2776C40.6153 43.015 41.9341 42.1074 42.9695 41.2609C46.0682 38.7277 47.3366 35.5901 47.0498 31.1671C46.8986 28.8321 46.2207 27.2699 44.1231 24.4211C42.7379 22.5403 37.4734 17.5537 36.0405 16.7659C35.1661 16.2848 31.6731 15.7481 29.6422 15.7824C28.998 15.7933 27.6509 15.963 26.6486 16.1592ZM38.1432 17.361C38.1432 17.4158 39.4992 18.7196 41.157 20.2588C46.7747 25.4748 48.4075 28.3174 48.3397 32.7615C48.3083 34.819 48.1843 35.3969 47.4288 37.0093C46.3458 39.3209 45.3486 40.6742 43.434 42.4298C41.0118 44.6509 40.3254 44.876 36.0405 44.8532C33.3909 44.8393 32.0707 44.7228 31.2044 44.427C29.6992 43.913 29.7022 44.1544 31.2131 45.1599C32.7693 46.1958 34.1024 46.4937 37.19 46.4952C39.6383 46.4967 39.7891 46.4639 40.931 45.6846C41.5854 45.2378 42.8974 44.3605 43.8467 43.7346C45.969 42.3353 46.9898 40.8831 48.1888 37.5558C48.6848 36.1798 49.285 34.9099 49.5228 34.734C50.5592 33.9674 50.7238 33.237 50.3229 31.1829C50.1143 30.1139 49.8839 28.6169 49.8107 27.8566C49.6621 26.3121 49.2853 25.6962 47.3811 23.8834C46.5157 23.0596 46.0052 22.3215 45.8821 21.716C45.6443 20.5466 44.3183 19.4862 42.2184 18.7858C41.3504 18.4965 40.1466 18.0352 39.5433 17.7608C38.4448 17.2613 38.1432 17.1751 38.1432 17.361ZM27.3007 19.0219C25.8572 19.2765 24.7192 19.7873 23.985 20.5104C23.6771 20.8137 22.8736 21.3497 22.1997 21.7018C20.9883 22.3345 20.2005 23.4289 20.2005 24.4788C20.2005 24.7465 19.6958 25.8141 19.079 26.8519C18.081 28.5307 17.9576 28.9295 17.9576 30.477C17.9576 31.4335 17.8102 32.7848 17.6302 33.4802C17.3863 34.4219 17.3832 34.9019 17.6181 35.3617C18.1715 36.4441 21.7716 40.6274 22.5319 41.0712C23.4803 41.6252 23.7713 41.6169 23.198 41.0525C22.9485 40.8068 22.1514 39.49 21.4264 38.1262C20.342 36.0858 20.0875 35.335 19.9888 33.888C19.7502 30.3825 21.4693 25.9348 23.9003 23.768C26.1737 21.742 29.6422 20.6333 33.143 20.814C34.3511 20.8762 35.3396 20.8382 35.3396 20.7293C35.3396 20.6204 34.4879 20.3098 33.4472 20.0391C29.446 18.9984 28.5088 18.7621 28.49 18.7885C28.4796 18.8035 27.9444 18.9085 27.3007 19.0219ZM36.2586 28.04C37.474 28.8481 37.8628 29.7696 37.8628 31.8415C37.8628 33.4292 37.7383 33.9135 37.0156 35.1383C36.147 36.6098 36.105 37.0763 36.8933 36.4931C37.5048 36.0408 38.1633 34.8545 38.5758 33.4624C38.9568 32.1758 38.7356 30.5179 38.0178 29.2811C37.5642 28.4992 36.3071 27.5015 35.7924 27.5145C35.6205 27.5188 35.8302 27.7554 36.2586 28.04ZM20.3269 42.2689C20.224 42.4173 20.411 42.7081 20.7424 42.915C21.074 43.1219 21.6603 43.7361 22.0452 44.2796L22.7452 45.268L22.1198 46.0696C21.7755 46.5106 20.905 47.4539 20.185 48.1655C17.2733 51.0445 15.4344 53.7676 15.4344 55.2004C15.4344 56.2366 16.4384 57.2881 17.3364 57.1924C17.9736 57.1244 18.0913 56.9427 18.4126 55.5335C18.6108 54.6629 19.1127 53.4261 19.5279 52.7849C20.4976 51.2872 22.1974 49.1928 22.3404 49.32C22.401 49.3742 22.122 50.1945 21.7203 51.1432C21.1823 52.4143 20.9784 53.3943 20.9456 54.8673C20.9033 56.7778 20.9299 56.8698 21.5476 56.948C22.5639 57.0764 23.004 56.5632 23.004 55.2504C23.004 53.7337 23.7856 51.635 24.9558 50.0093C25.4641 49.3037 25.9281 48.7697 25.9873 48.8224C26.0464 48.8752 25.7893 49.8632 25.4159 51.0183C24.7792 52.988 24.5816 53.9395 24.655 54.6799C24.706 55.1931 25.7078 55.0347 26.5886 54.3743C27.6243 53.5975 28.1844 51.9328 28.1878 49.62C28.19 48.1678 28.0624 47.6765 27.435 46.7253C26.599 45.4582 24.9359 44.1466 22.5221 42.851C20.7833 41.918 20.6033 41.8703 20.3269 42.2689Z" fill="#D7D7D7"/>
</svg>
